<svg xmlns="http://www.w3.org/2000/svg" viewBox="0 0 24 24" fill="none" class="h-9 w-9 z-10 text-white shadow-warranty-icon-mini md:shadow-warranty-icon"><path stroke="#fff" stroke-width="1.5" d="M3.353 8.95A7.511 7.511 0 0 1 8.95 3.353c2.006-.47 4.094-.47 6.1 0a7.511 7.511 0 0 1 5.597 5.597c.47 2.006.47 4.094 0 6.1a7.511 7.511 0 0 1-5.597 5.597c-2.006.47-4.094.47-6.1 0a7.511 7.511 0 0 1-5.597-5.597 13.354 13.354 0 0 1 0-6.1Z"></path><path stroke="#fff" stroke-linecap="round" stroke-linejoin="round" stroke-width="1.5" d="m14.5 14.5-2.839-1.806V9"></path></svg>