<svg xmlns="http://www.w3.org/2000/svg" width="400" height="400" viewBox="0 0 400 400" fill="none">
<g filter="url(#filter0_b_1_13)">
<rect width="400" height="400" fill="url(#paint0_linear_1_13)"/>
<rect x="24" y="268" width="357" height="43" rx="6" fill="white"/>
<path d="M37.6575 293.616L38.0655 289.368H47.3055C47.4015 289.368 47.4815 289.392 47.5455 289.44C47.6095 289.472 47.6655 289.56 47.7135 289.704C47.7615 289.848 47.7935 290.072 47.8095 290.376C47.8255 290.68 47.8335 291.096 47.8335 291.624C47.8335 292.184 47.8255 292.624 47.8095 292.944C47.7935 293.264 47.7615 293.504 47.7135 293.664C47.6655 293.824 47.6095 293.92 47.5455 293.952C47.4815 293.984 47.4015 294 47.3055 294H46.2255C46.1615 294.784 45.9615 295.496 45.6255 296.136C45.3055 296.792 44.8655 297.352 44.3055 297.816C43.7455 298.28 43.0735 298.64 42.2895 298.896C41.5055 299.152 40.6255 299.28 39.6495 299.28H37.9215C36.9295 299.28 36.0415 299.128 35.2575 298.824C34.4895 298.52 33.8335 298.08 33.2895 297.504C32.7455 296.944 32.3295 296.256 32.0415 295.44C31.7535 294.624 31.6095 293.704 31.6095 292.68V287.664H35.9535V292.8C35.9535 293.408 36.1295 293.872 36.4815 294.192C36.8335 294.512 37.4015 294.672 38.1855 294.672H40.3215C40.7855 294.672 41.1855 294.624 41.5215 294.528C41.8575 294.448 42.0255 294.272 42.0255 294C42.0255 293.744 41.8975 293.616 41.6415 293.616H37.6575ZM48.2089 289.368C48.3209 289.368 48.4169 289.336 48.4969 289.272C48.5769 289.192 48.6169 289.096 48.6169 288.984V285.408H52.8409V288.984C52.8409 289.096 52.8809 289.192 52.9609 289.272C53.0409 289.336 53.1369 289.368 53.2489 289.368C53.3449 289.368 53.4329 289.336 53.5129 289.272C53.5929 289.192 53.6329 289.096 53.6329 288.984V285.408H57.8569V288.984C57.8569 289.096 57.8969 289.192 57.9769 289.272C58.0569 289.336 58.1529 289.368 58.2649 289.368C58.3609 289.368 58.4489 289.336 58.5289 289.272C58.6089 289.192 58.6489 289.096 58.6489 288.984V285.408H62.8729V288.984C62.8729 289.096 62.9129 289.192 62.9929 289.272C63.0729 289.336 63.1609 289.368 63.2569 289.368H64.1929C64.2889 289.368 64.3689 289.392 64.4329 289.44C64.5129 289.472 64.5689 289.56 64.6009 289.704C64.6489 289.848 64.6809 290.072 64.6969 290.376C64.7129 290.68 64.7209 291.096 64.7209 291.624C64.7209 292.184 64.7129 292.624 64.6969 292.944C64.6809 293.264 64.6489 293.504 64.6009 293.664C64.5689 293.824 64.5129 293.92 64.4329 293.952C64.3689 293.984 64.2889 294 64.1929 294H63.4249C62.8809 294 62.4009 293.952 61.9849 293.856C61.5849 293.76 61.2169 293.544 60.8809 293.208C60.4809 293.544 60.0569 293.76 59.6089 293.856C59.1769 293.952 58.7289 294 58.2649 294C57.9289 294 57.5289 293.952 57.0649 293.856C56.6009 293.76 56.2089 293.544 55.8889 293.208C55.4729 293.544 55.0809 293.76 54.7129 293.856C54.3609 293.952 54.0889 294 53.8969 294H53.2489C52.9129 294 52.5129 293.952 52.0489 293.856C51.5849 293.76 51.1849 293.544 50.8489 293.208C50.4649 293.544 50.0889 293.76 49.7209 293.856C49.3529 293.952 49.0729 294 48.8809 294H47.2969C47.2009 294 47.1209 293.984 47.0569 293.952C46.9769 293.92 46.9209 293.832 46.8889 293.688C46.8409 293.528 46.8089 293.296 46.7929 292.992C46.7769 292.688 46.7689 292.272 46.7689 291.744C46.7689 291.184 46.7769 290.744 46.7929 290.424C46.8089 290.104 46.8409 289.872 46.8889 289.728C46.9209 289.568 46.9769 289.472 47.0569 289.44C47.1209 289.392 47.2009 289.368 47.2969 289.368H48.2089ZM65.6593 289.368C65.7553 289.368 65.8433 289.336 65.9233 289.272C66.0033 289.192 66.0433 289.096 66.0433 288.984V285.408H70.3873V289.368C70.3873 290.136 70.2753 290.808 70.0513 291.384C69.8433 291.96 69.5473 292.44 69.1633 292.824C68.7793 293.208 68.3153 293.504 67.7713 293.712C67.2433 293.904 66.6673 294 66.0433 294H64.1953C64.0993 294 64.0193 293.984 63.9553 293.952C63.8753 293.92 63.8193 293.832 63.7873 293.688C63.7393 293.528 63.7073 293.296 63.6913 292.992C63.6753 292.688 63.6673 292.272 63.6673 291.744C63.6673 291.184 63.6753 290.744 63.6913 290.424C63.7073 290.104 63.7393 289.872 63.7873 289.728C63.8193 289.568 63.8753 289.472 63.9553 289.44C64.0193 289.392 64.0993 289.368 64.1953 289.368H65.6593ZM71.0593 298.608H64.1953V295.296H71.0593V298.608ZM83.0865 289.368C83.1825 289.368 83.2625 289.392 83.3265 289.44C83.3905 289.472 83.4385 289.56 83.4705 289.704C83.5185 289.848 83.5505 290.072 83.5665 290.376C83.5825 290.68 83.5905 291.096 83.5905 291.624C83.5905 292.184 83.5825 292.624 83.5665 292.944C83.5505 293.264 83.5185 293.504 83.4705 293.664C83.4385 293.824 83.3905 293.92 83.3265 293.952C83.2625 293.984 83.1825 294 83.0865 294H81.7185C81.6705 294.976 81.4865 295.832 81.1665 296.568C80.8625 297.304 80.4465 297.92 79.9185 298.416C79.3905 298.928 78.7665 299.312 78.0465 299.568C77.3265 299.824 76.5425 299.952 75.6945 299.952H72.1185L71.8545 295.32H75.9585C76.4865 295.32 76.8545 295.216 77.0625 295.008C77.2865 294.8 77.3985 294.464 77.3985 294H77.0145C76.0225 294 75.2065 293.888 74.5665 293.664C73.9265 293.44 73.4225 293.128 73.0545 292.728C72.7025 292.312 72.4545 291.808 72.3105 291.216C72.1825 290.624 72.1185 289.968 72.1185 289.248C72.1185 288.56 72.2225 287.904 72.4305 287.28C72.6385 286.656 72.9425 286.112 73.3425 285.648C73.7585 285.168 74.2625 284.792 74.8545 284.52C75.4465 284.232 76.1185 284.088 76.8705 284.088C77.5265 284.088 78.1505 284.184 78.7425 284.376C79.3345 284.568 79.8545 284.88 80.3025 285.312C80.7505 285.728 81.1025 286.272 81.3585 286.944C81.6305 287.6 81.7665 288.408 81.7665 289.368H83.0865ZM76.2225 288.96C76.2225 289.216 76.2705 289.416 76.3665 289.56C76.4625 289.704 76.6785 289.776 77.0145 289.776H77.6625V289.104C77.6625 288.496 77.4145 288.192 76.9185 288.192C76.4545 288.192 76.2225 288.448 76.2225 288.96ZM84.5499 289.368C84.6459 289.368 84.7339 289.336 84.8139 289.272C84.8939 289.192 84.9339 289.096 84.9339 288.984V285.408H89.2779V289.368C89.2779 290.136 89.1659 290.808 88.9419 291.384C88.7339 291.96 88.4379 292.44 88.0539 292.824C87.6699 293.208 87.2059 293.504 86.6619 293.712C86.1339 293.904 85.5579 294 84.9339 294H83.0859C82.9899 294 82.9099 293.984 82.8459 293.952C82.7659 293.92 82.7099 293.832 82.6779 293.688C82.6299 293.528 82.5979 293.296 82.5819 292.992C82.5659 292.688 82.5579 292.272 82.5579 291.744C82.5579 291.184 82.5659 290.744 82.5819 290.424C82.5979 290.104 82.6299 289.872 82.6779 289.728C82.7099 289.568 82.7659 289.472 82.8459 289.44C82.9099 289.392 82.9899 289.368 83.0859 289.368H84.5499ZM89.3019 284.088H84.9339V280.8H89.3019V284.088ZM102.898 288.984C102.898 289.096 102.938 289.192 103.018 289.272C103.098 289.336 103.194 289.368 103.306 289.368H104.218C104.314 289.368 104.394 289.392 104.458 289.44C104.538 289.472 104.594 289.56 104.626 289.704C104.674 289.848 104.706 290.072 104.722 290.376C104.738 290.68 104.746 291.096 104.746 291.624C104.746 292.184 104.738 292.624 104.722 292.944C104.706 293.264 104.674 293.504 104.626 293.664C104.594 293.824 104.538 293.92 104.458 293.952C104.394 293.984 104.314 294 104.218 294H103.162C102.57 294 102.002 293.888 101.458 293.664C100.93 293.424 100.53 292.968 100.258 292.296C99.8576 292.616 99.4416 292.832 99.0096 292.944C98.5936 293.04 98.0896 293.088 97.4976 293.088C96.8736 293.088 96.2976 293 95.7696 292.824C95.2576 292.632 94.8096 292.344 94.4256 291.96C94.0576 291.56 93.7696 291.064 93.5616 290.472C93.3696 289.864 93.2736 289.144 93.2736 288.312C93.2736 287.688 93.3776 287.072 93.5856 286.464C93.8096 285.84 94.1136 285.288 94.4976 284.808C94.8976 284.328 95.3776 283.936 95.9376 283.632C96.5136 283.328 97.1616 283.176 97.8816 283.176H98.5536V281.712H102.898V288.984ZM97.3536 288.192C97.3536 288.464 97.4096 288.64 97.5216 288.72C97.6496 288.8 97.8176 288.84 98.0256 288.84C98.2976 288.84 98.4896 288.784 98.6016 288.672C98.7296 288.544 98.7936 288.384 98.7936 288.192V287.4H98.1456C97.6176 287.4 97.3536 287.664 97.3536 288.192ZM105.139 289.368C105.251 289.368 105.347 289.336 105.427 289.272C105.507 289.192 105.547 289.096 105.547 288.984C105.547 287.384 105.971 286.128 106.819 285.216C107.683 284.288 108.859 283.824 110.347 283.824C111.915 283.824 113.091 284.28 113.875 285.192C114.659 286.104 115.051 287.32 115.051 288.84C115.051 290.44 114.619 291.704 113.755 292.632C112.891 293.544 111.699 294 110.179 294C109.715 294 109.259 293.936 108.811 293.808C108.363 293.68 107.979 293.48 107.659 293.208C107.467 293.384 107.259 293.52 107.035 293.616C106.827 293.712 106.587 293.792 106.315 293.856C106.059 293.92 105.763 293.96 105.427 293.976C105.091 293.992 104.691 294 104.227 294C104.131 294 104.051 293.984 103.987 293.952C103.907 293.92 103.851 293.832 103.819 293.688C103.771 293.528 103.739 293.296 103.723 292.992C103.707 292.688 103.699 292.272 103.699 291.744C103.699 291.184 103.707 290.744 103.723 290.424C103.739 290.104 103.771 289.872 103.819 289.728C103.851 289.568 103.907 289.472 103.987 289.44C104.051 289.392 104.131 289.368 104.227 289.368H105.139ZM109.507 288.84C109.507 289.176 109.579 289.392 109.723 289.488C109.867 289.584 110.043 289.632 110.251 289.632C110.427 289.632 110.587 289.584 110.731 289.488C110.875 289.392 110.947 289.176 110.947 288.84C110.947 288.312 110.715 288.048 110.251 288.048C109.755 288.048 109.507 288.312 109.507 288.84ZM122.167 289.368C122.263 289.368 122.343 289.392 122.407 289.44C122.487 289.472 122.543 289.56 122.575 289.704C122.623 289.848 122.655 290.072 122.671 290.376C122.687 290.68 122.695 291.096 122.695 291.624C122.695 292.184 122.687 292.624 122.671 292.944C122.655 293.264 122.623 293.504 122.575 293.664C122.543 293.824 122.487 293.92 122.407 293.952C122.343 293.984 122.263 294 122.167 294H120.991C120.159 294 119.455 293.88 118.879 293.64C118.319 293.384 117.863 293.048 117.511 292.632C117.159 292.216 116.903 291.728 116.743 291.168C116.583 290.592 116.503 289.992 116.503 289.368V279.36H120.871V288.984C120.871 289.24 120.999 289.368 121.255 289.368H122.167ZM123.62 289.368C123.716 289.368 123.804 289.336 123.884 289.272C123.964 289.192 124.004 289.096 124.004 288.984V285.408H128.348V289.368C128.348 290.136 128.236 290.808 128.012 291.384C127.804 291.96 127.508 292.44 127.124 292.824C126.74 293.208 126.276 293.504 125.732 293.712C125.204 293.904 124.628 294 124.004 294H122.156C122.06 294 121.98 293.984 121.916 293.952C121.836 293.92 121.78 293.832 121.748 293.688C121.7 293.528 121.668 293.296 121.652 292.992C121.636 292.688 121.628 292.272 121.628 291.744C121.628 291.184 121.636 290.744 121.652 290.424C121.668 290.104 121.7 289.872 121.748 289.728C121.78 289.568 121.836 289.472 121.916 289.44C121.98 289.392 122.06 289.368 122.156 289.368H123.62ZM128.372 284.088H124.004V280.8H128.372V284.088ZM134.447 289.032C134.447 289.256 134.575 289.368 134.831 289.368H135.743C135.839 289.368 135.919 289.392 135.983 289.44C136.063 289.472 136.119 289.56 136.151 289.704C136.199 289.848 136.231 290.072 136.247 290.376C136.263 290.68 136.271 291.096 136.271 291.624C136.271 292.184 136.263 292.624 136.247 292.944C136.231 293.264 136.199 293.504 136.151 293.664C136.119 293.824 136.063 293.92 135.983 293.952C135.919 293.984 135.839 294 135.743 294H135.359C134.975 294 134.639 293.976 134.351 293.928C134.255 294.712 134.039 295.44 133.703 296.112C133.367 296.8 132.935 297.392 132.407 297.888C131.879 298.4 131.255 298.8 130.535 299.088C129.831 299.392 129.063 299.544 128.231 299.544H125.591L125.183 294.936H127.703C128.567 294.936 129.175 294.76 129.527 294.408C129.895 294.056 130.079 293.616 130.079 293.088V285.408H134.447V289.032ZM137.214 289.368C137.31 289.368 137.398 289.336 137.478 289.272C137.558 289.192 137.598 289.096 137.598 288.984V285.408H141.942V289.368C141.942 290.136 141.83 290.808 141.606 291.384C141.398 291.96 141.102 292.44 140.718 292.824C140.334 293.208 139.87 293.504 139.326 293.712C138.798 293.904 138.222 294 137.598 294H135.75C135.654 294 135.574 293.984 135.51 293.952C135.43 293.92 135.374 293.832 135.342 293.688C135.294 293.528 135.262 293.296 135.246 292.992C135.23 292.688 135.222 292.272 135.222 291.744C135.222 291.184 135.23 290.744 135.246 290.424C135.262 290.104 135.294 289.872 135.342 289.728C135.374 289.568 135.43 289.472 135.51 289.44C135.574 289.392 135.654 289.368 135.75 289.368H137.214ZM141.174 298.608H136.806V295.296H141.174V298.608ZM153.338 292.944C153.338 293.84 153.186 294.688 152.882 295.488C152.578 296.288 152.154 296.984 151.61 297.576C151.066 298.184 150.41 298.664 149.642 299.016C148.89 299.368 148.05 299.544 147.122 299.544H144.482L144.074 294.936H146.594C147.458 294.936 148.066 294.76 148.418 294.408C148.786 294.056 148.97 293.616 148.97 293.088V285.408H153.338V292.944ZM153.338 284.088H148.97V280.8H153.338V284.088ZM156.698 279.36H161.066V294H156.698V279.36ZM170.964 289.104C170.964 289.04 170.948 288.96 170.916 288.864C170.884 288.768 170.812 288.584 170.7 288.312L168.732 283.176L172.812 281.328L175.74 288.984C175.836 289.24 176.012 289.368 176.268 289.368H177.036C177.132 289.368 177.212 289.392 177.276 289.44C177.356 289.472 177.412 289.56 177.444 289.704C177.492 289.848 177.524 290.072 177.54 290.376C177.556 290.68 177.564 291.096 177.564 291.624C177.564 292.184 177.556 292.624 177.54 292.944C177.524 293.264 177.492 293.504 177.444 293.664C177.412 293.824 177.356 293.92 177.276 293.952C177.212 293.984 177.132 294 177.036 294H175.86C175.54 294 175.148 293.952 174.684 293.856C174.22 293.76 173.82 293.544 173.484 293.208C173.084 293.544 172.716 293.76 172.38 293.856C172.06 293.952 171.764 294 171.492 294H165.42L165.036 289.368H170.652C170.86 289.368 170.964 289.28 170.964 289.104ZM177.959 289.368C178.071 289.368 178.167 289.336 178.247 289.272C178.327 289.192 178.367 289.096 178.367 288.984C178.367 287.384 178.791 286.128 179.639 285.216C180.503 284.288 181.679 283.824 183.167 283.824C184.735 283.824 185.911 284.28 186.695 285.192C187.479 286.104 187.871 287.32 187.871 288.84C187.871 290.44 187.439 291.704 186.575 292.632C185.711 293.544 184.519 294 182.999 294C182.535 294 182.079 293.936 181.631 293.808C181.183 293.68 180.799 293.48 180.479 293.208C180.287 293.384 180.079 293.52 179.855 293.616C179.647 293.712 179.407 293.792 179.135 293.856C178.879 293.92 178.583 293.96 178.247 293.976C177.911 293.992 177.511 294 177.047 294C176.951 294 176.871 293.984 176.807 293.952C176.727 293.92 176.671 293.832 176.639 293.688C176.591 293.528 176.559 293.296 176.543 292.992C176.527 292.688 176.519 292.272 176.519 291.744C176.519 291.184 176.527 290.744 176.543 290.424C176.559 290.104 176.591 289.872 176.639 289.728C176.671 289.568 176.727 289.472 176.807 289.44C176.871 289.392 176.951 289.368 177.047 289.368H177.959ZM182.327 288.84C182.327 289.176 182.399 289.392 182.543 289.488C182.687 289.584 182.863 289.632 183.071 289.632C183.247 289.632 183.407 289.584 183.551 289.488C183.695 289.392 183.767 289.176 183.767 288.84C183.767 288.312 183.535 288.048 183.071 288.048C182.575 288.048 182.327 288.312 182.327 288.84ZM189.323 281.976H193.691V294H189.323V281.976ZM189.971 280.656C189.763 280.656 189.595 280.68 189.467 280.728C189.355 280.76 189.235 280.888 189.107 281.112L188.243 282.768L185.483 281.304L186.395 279.336C186.603 278.888 186.811 278.52 187.019 278.232C187.227 277.928 187.459 277.696 187.715 277.536C187.971 277.36 188.275 277.24 188.627 277.176C188.995 277.112 189.443 277.08 189.971 277.08H194.987V280.656H189.971ZM199.908 292.944C199.908 293.84 199.756 294.688 199.452 295.488C199.148 296.288 198.724 296.984 198.18 297.576C197.636 298.184 196.98 298.664 196.212 299.016C195.46 299.368 194.62 299.544 193.692 299.544H191.052L190.644 294.936H193.164C194.028 294.936 194.636 294.76 194.988 294.408C195.356 294.056 195.54 293.616 195.54 293.088V285.408H199.908V292.944ZM203.339 284.496L206.627 281.328L210.851 286.488C211.459 287.208 211.851 287.856 212.027 288.432C212.219 289.008 212.315 289.544 212.315 290.04C212.315 290.584 212.219 291.096 212.027 291.576C211.851 292.056 211.579 292.48 211.211 292.848C210.843 293.2 210.371 293.48 209.795 293.688C209.235 293.896 208.571 294 207.803 294H201.467L201.083 289.368H206.627C206.883 289.368 207.011 289.264 207.011 289.056C207.011 288.912 206.923 288.728 206.747 288.504L203.339 284.496ZM220.762 294C219.93 294 219.226 293.88 218.65 293.64C218.09 293.384 217.634 293.048 217.282 292.632C216.93 292.216 216.674 291.728 216.514 291.168C216.354 290.592 216.274 289.992 216.274 289.368V285.408H220.618V288.984C220.618 289.096 220.658 289.192 220.738 289.272C220.818 289.336 220.914 289.368 221.026 289.368H227.098C227.194 289.368 227.282 289.336 227.362 289.272C227.442 289.192 227.482 289.096 227.482 288.984V285.408H231.826V288.984C231.826 289.096 231.866 289.192 231.946 289.272C232.026 289.336 232.122 289.368 232.234 289.368H233.17C233.266 289.368 233.346 289.392 233.41 289.44C233.474 289.472 233.53 289.56 233.578 289.704C233.626 289.848 233.658 290.072 233.674 290.376C233.69 290.68 233.698 291.096 233.698 291.624C233.698 292.184 233.69 292.624 233.674 292.944C233.658 293.264 233.626 293.504 233.578 293.664C233.53 293.824 233.474 293.92 233.41 293.952C233.346 293.984 233.266 294 233.17 294H232.402C231.842 294 231.338 293.952 230.89 293.856C230.442 293.76 230.05 293.544 229.714 293.208C229.314 293.544 228.922 293.76 228.538 293.856C228.154 293.952 227.802 294 227.482 294H220.762ZM226.162 298.608H221.794V295.296H226.162V298.608ZM234.092 289.368C234.204 289.368 234.3 289.336 234.38 289.272C234.46 289.192 234.5 289.096 234.5 288.984V285.408H238.724V288.984C238.724 289.096 238.764 289.192 238.844 289.272C238.924 289.336 239.02 289.368 239.132 289.368C239.228 289.368 239.316 289.336 239.396 289.272C239.476 289.192 239.516 289.096 239.516 288.984V285.408H243.74V288.984C243.74 289.096 243.78 289.192 243.86 289.272C243.94 289.336 244.036 289.368 244.148 289.368C244.244 289.368 244.332 289.336 244.412 289.272C244.492 289.192 244.532 289.096 244.532 288.984V285.408H248.756V288.984C248.756 289.096 248.796 289.192 248.876 289.272C248.956 289.336 249.044 289.368 249.14 289.368H250.076C250.172 289.368 250.252 289.392 250.316 289.44C250.396 289.472 250.452 289.56 250.484 289.704C250.532 289.848 250.564 290.072 250.58 290.376C250.596 290.68 250.604 291.096 250.604 291.624C250.604 292.184 250.596 292.624 250.58 292.944C250.564 293.264 250.532 293.504 250.484 293.664C250.452 293.824 250.396 293.92 250.316 293.952C250.252 293.984 250.172 294 250.076 294H249.308C248.764 294 248.284 293.952 247.868 293.856C247.468 293.76 247.1 293.544 246.764 293.208C246.364 293.544 245.94 293.76 245.492 293.856C245.06 293.952 244.612 294 244.148 294C243.812 294 243.412 293.952 242.948 293.856C242.484 293.76 242.092 293.544 241.772 293.208C241.356 293.544 240.964 293.76 240.596 293.856C240.244 293.952 239.972 294 239.78 294H239.132C238.796 294 238.396 293.952 237.932 293.856C237.468 293.76 237.068 293.544 236.732 293.208C236.348 293.544 235.972 293.76 235.604 293.856C235.236 293.952 234.956 294 234.764 294H233.18C233.084 294 233.004 293.984 232.94 293.952C232.86 293.92 232.804 293.832 232.772 293.688C232.724 293.528 232.692 293.296 232.676 292.992C232.66 292.688 232.652 292.272 232.652 291.744C232.652 291.184 232.66 290.744 232.676 290.424C232.692 290.104 232.724 289.872 232.772 289.728C232.804 289.568 232.86 289.472 232.94 289.44C233.004 289.392 233.084 289.368 233.18 289.368H234.092ZM254.83 289.368C255.102 289.368 255.238 289.264 255.238 289.056C255.238 288.928 255.15 288.768 254.974 288.576L250.606 284.232V281.064L259.99 277.632L261.046 281.976L256.414 283.704L258.262 285.552C258.694 285.984 259.046 286.384 259.318 286.752C259.59 287.104 259.806 287.448 259.966 287.784C260.126 288.104 260.23 288.424 260.278 288.744C260.342 289.064 260.374 289.408 260.374 289.776C260.374 290.528 260.254 291.176 260.014 291.72C259.79 292.248 259.47 292.68 259.054 293.016C258.654 293.352 258.182 293.6 257.638 293.76C257.094 293.92 256.51 294 255.886 294H250.078C249.982 294 249.902 293.984 249.838 293.952C249.758 293.92 249.702 293.832 249.67 293.688C249.622 293.528 249.59 293.296 249.574 292.992C249.558 292.688 249.55 292.272 249.55 291.744C249.55 291.184 249.558 290.744 249.574 290.424C249.59 290.104 249.622 289.872 249.67 289.728C249.702 289.568 249.758 289.472 249.838 289.44C249.902 289.392 249.982 289.368 250.078 289.368H254.83ZM274.915 293.472C274.915 294.528 274.763 295.456 274.459 296.256C274.171 297.072 273.755 297.752 273.211 298.296C272.667 298.84 272.019 299.248 271.267 299.52C270.531 299.808 269.723 299.952 268.843 299.952H265.267L265.003 295.32H269.107C269.635 295.32 270.003 295.216 270.211 295.008C270.435 294.8 270.547 294.464 270.547 294H270.163C269.171 294 268.355 293.888 267.715 293.664C267.075 293.44 266.571 293.128 266.203 292.728C265.851 292.312 265.603 291.808 265.459 291.216C265.331 290.624 265.267 289.968 265.267 289.248C265.267 288.56 265.371 287.904 265.579 287.28C265.787 286.656 266.091 286.112 266.491 285.648C266.907 285.168 267.411 284.792 268.003 284.52C268.595 284.232 269.267 284.088 270.019 284.088C270.675 284.088 271.299 284.184 271.891 284.376C272.483 284.568 273.003 284.88 273.451 285.312C273.899 285.728 274.251 286.272 274.507 286.944C274.779 287.6 274.915 288.408 274.915 289.368V293.472ZM269.371 288.96C269.371 289.216 269.419 289.416 269.515 289.56C269.611 289.704 269.827 289.776 270.163 289.776H270.811V289.104C270.811 288.496 270.563 288.192 270.067 288.192C269.603 288.192 269.371 288.448 269.371 288.96ZM281.107 290.952C280.835 290.488 280.659 290.08 280.579 289.728C280.499 289.376 280.459 289.04 280.459 288.72C280.459 288.032 280.563 287.384 280.771 286.776C280.979 286.168 281.275 285.64 281.659 285.192C282.059 284.728 282.547 284.368 283.123 284.112C283.699 283.84 284.355 283.704 285.091 283.704C285.603 283.704 286.163 283.784 286.771 283.944C287.395 284.104 288.107 284.416 288.907 284.88L287.587 288.576C286.979 288.384 286.515 288.248 286.195 288.168C285.891 288.088 285.603 288.048 285.331 288.048C285.123 288.048 284.939 288.112 284.779 288.24C284.619 288.368 284.539 288.544 284.539 288.768C284.539 288.928 284.579 289.072 284.659 289.2C284.739 289.312 284.915 289.368 285.187 289.368H289.435L289.027 294H285.067C284.395 294 283.915 294.144 283.627 294.432C283.355 294.736 283.219 295.12 283.219 295.584C283.219 296.048 283.395 296.424 283.747 296.712C284.099 297.016 284.667 297.168 285.451 297.168H289.699L289.339 301.8H285.331C284.115 301.8 283.091 301.64 282.259 301.32C281.443 301.016 280.779 300.592 280.267 300.048C279.771 299.504 279.411 298.864 279.187 298.128C278.979 297.392 278.875 296.592 278.875 295.728C278.875 294.8 279.067 293.928 279.451 293.112C279.835 292.28 280.387 291.56 281.107 290.952ZM300.79 293.472C300.79 294.528 300.638 295.456 300.334 296.256C300.046 297.072 299.63 297.752 299.086 298.296C298.542 298.84 297.894 299.248 297.142 299.52C296.406 299.808 295.598 299.952 294.718 299.952H291.142L290.878 295.32H294.982C295.51 295.32 295.878 295.216 296.086 295.008C296.31 294.8 296.422 294.464 296.422 294H296.038C295.046 294 294.23 293.888 293.59 293.664C292.95 293.44 292.446 293.128 292.078 292.728C291.726 292.312 291.478 291.808 291.334 291.216C291.206 290.624 291.142 289.968 291.142 289.248C291.142 288.56 291.246 287.904 291.454 287.28C291.662 286.656 291.966 286.112 292.366 285.648C292.782 285.168 293.286 284.792 293.878 284.52C294.47 284.232 295.142 284.088 295.894 284.088C296.55 284.088 297.174 284.184 297.766 284.376C298.358 284.568 298.878 284.88 299.326 285.312C299.774 285.728 300.126 286.272 300.382 286.944C300.654 287.6 300.79 288.408 300.79 289.368V293.472ZM295.246 288.96C295.246 289.216 295.294 289.416 295.39 289.56C295.486 289.704 295.702 289.776 296.038 289.776H296.686V289.104C296.686 288.496 296.438 288.192 295.942 288.192C295.478 288.192 295.246 288.448 295.246 288.96ZM302.758 294.936C303.622 294.936 304.23 294.76 304.582 294.408C304.95 294.056 305.134 293.616 305.134 293.088V285.408H309.502V289.032C309.502 289.256 309.63 289.368 309.886 289.368H310.798C310.894 289.368 310.974 289.392 311.038 289.44C311.118 289.472 311.174 289.56 311.206 289.704C311.254 289.848 311.286 290.072 311.302 290.376C311.318 290.68 311.326 291.096 311.326 291.624C311.326 292.184 311.318 292.624 311.302 292.944C311.286 293.264 311.254 293.504 311.206 293.664C311.174 293.824 311.118 293.92 311.038 293.952C310.974 293.984 310.894 294 310.798 294H310.414C310.03 294 309.694 293.976 309.406 293.928C309.31 294.712 309.094 295.44 308.758 296.112C308.422 296.8 307.99 297.392 307.462 297.888C306.934 298.4 306.31 298.8 305.59 299.088C304.886 299.392 304.11 299.544 303.262 299.544H302.086L301.702 294.936H302.758ZM313.146 289.368C313.258 289.368 313.354 289.336 313.434 289.272C313.514 289.192 313.554 289.096 313.554 288.984V285.408H317.778V288.984C317.778 289.096 317.818 289.192 317.898 289.272C317.978 289.336 318.074 289.368 318.186 289.368C318.282 289.368 318.37 289.336 318.45 289.272C318.53 289.192 318.57 289.096 318.57 288.984V285.408H322.794V288.984C322.794 289.096 322.834 289.192 322.914 289.272C322.994 289.336 323.09 289.368 323.202 289.368C323.298 289.368 323.386 289.336 323.466 289.272C323.546 289.192 323.586 289.096 323.586 288.984V285.408H327.81V289.368C327.81 290.168 327.682 290.856 327.426 291.432C327.17 292.008 326.826 292.488 326.394 292.872C325.962 293.256 325.466 293.544 324.906 293.736C324.362 293.912 323.794 294 323.202 294C322.866 294 322.466 293.952 322.002 293.856C321.538 293.76 321.146 293.544 320.826 293.208C320.41 293.544 320.018 293.76 319.65 293.856C319.298 293.952 319.026 294 318.834 294H318.186C317.85 294 317.45 293.952 316.986 293.856C316.522 293.76 316.122 293.544 315.786 293.208C315.402 293.544 315.026 293.76 314.658 293.856C314.29 293.952 314.01 294 313.818 294H312.234C312.138 294 312.058 293.984 311.994 293.952C311.914 293.92 311.858 293.832 311.826 293.688C311.778 293.528 311.746 293.296 311.73 292.992C311.714 292.688 311.706 292.272 311.706 291.744C311.706 291.184 311.714 290.744 311.73 290.424C311.746 290.104 311.778 289.872 311.826 289.728C311.858 289.568 311.914 289.472 311.994 289.44C312.058 289.392 312.138 289.368 312.234 289.368H313.146ZM322.122 280.128H318.69V276.84H322.122V280.128ZM323.85 284.088H316.986V280.8H323.85V284.088ZM331.774 289.368C331.774 288.584 331.934 287.848 332.254 287.16C332.574 286.456 333.07 285.696 333.742 284.88L332.734 283.824L335.806 280.8C337.038 281.92 338.03 282.896 338.782 283.728C339.534 284.544 340.11 285.28 340.51 285.936C340.926 286.576 341.198 287.168 341.326 287.712C341.47 288.256 341.542 288.808 341.542 289.368C341.542 290.04 341.414 290.656 341.158 291.216C340.902 291.776 340.55 292.264 340.102 292.68C339.67 293.096 339.142 293.424 338.518 293.664C337.91 293.888 337.246 294 336.526 294C335.806 294 335.15 293.888 334.558 293.664C333.966 293.44 333.462 293.128 333.046 292.728C332.646 292.328 332.334 291.848 332.11 291.288C331.886 290.712 331.774 290.072 331.774 289.368ZM337.438 288.936C337.438 288.488 337.174 288.024 336.646 287.544C336.118 288.056 335.854 288.52 335.854 288.936C335.854 289.4 336.118 289.632 336.646 289.632C337.174 289.632 337.438 289.4 337.438 288.936ZM347.612 292.944C347.612 293.84 347.46 294.688 347.156 295.488C346.852 296.288 346.428 296.984 345.884 297.576C345.34 298.184 344.684 298.664 343.916 299.016C343.164 299.368 342.324 299.544 341.396 299.544H338.755L338.347 294.936H340.867C341.731 294.936 342.34 294.76 342.692 294.408C343.06 294.056 343.244 293.616 343.244 293.088V285.408H347.612V292.944ZM358.962 293.472C358.962 294.528 358.81 295.456 358.506 296.256C358.218 297.072 357.802 297.752 357.258 298.296C356.714 298.84 356.066 299.248 355.314 299.52C354.578 299.808 353.77 299.952 352.89 299.952H349.314L349.05 295.32H353.154C353.682 295.32 354.05 295.216 354.258 295.008C354.482 294.8 354.594 294.464 354.594 294H354.21C353.218 294 352.402 293.888 351.762 293.664C351.122 293.44 350.618 293.128 350.25 292.728C349.898 292.312 349.65 291.808 349.506 291.216C349.378 290.624 349.314 289.968 349.314 289.248C349.314 288.56 349.418 287.904 349.626 287.28C349.834 286.656 350.138 286.112 350.538 285.648C350.954 285.168 351.458 284.792 352.05 284.52C352.642 284.232 353.314 284.088 354.066 284.088C354.722 284.088 355.346 284.184 355.938 284.376C356.53 284.568 357.05 284.88 357.498 285.312C357.946 285.728 358.298 286.272 358.554 286.944C358.826 287.6 358.962 288.408 358.962 289.368V293.472ZM353.418 288.96C353.418 289.216 353.466 289.416 353.562 289.56C353.658 289.704 353.874 289.776 354.21 289.776H354.858V289.104C354.858 288.496 354.61 288.192 354.114 288.192C353.65 288.192 353.418 288.448 353.418 288.96ZM362.386 284.496L365.674 281.328L369.898 286.488C370.506 287.208 370.898 287.856 371.074 288.432C371.266 289.008 371.362 289.544 371.362 290.04C371.362 290.584 371.266 291.096 371.074 291.576C370.898 292.056 370.626 292.48 370.258 292.848C369.89 293.2 369.418 293.48 368.842 293.688C368.282 293.896 367.618 294 366.85 294H360.514L360.13 289.368H365.674C365.93 289.368 366.058 289.264 366.058 289.056C366.058 288.912 365.97 288.728 365.794 288.504L362.386 284.496Z" fill="#EA580C"/>
<path fill-rule="evenodd" clip-rule="evenodd" d="M194.882 104.16C213.69 105.705 225.013 123.414 239.08 136.004C254.62 149.911 278.242 159.442 279.893 180.24C281.582 201.517 263.014 218.356 246.709 232.112C232.007 244.517 214.107 251.534 194.882 251.966C175.152 252.409 154.447 248.64 140.673 234.495C127.028 220.482 124.651 199.803 125.038 180.24C125.416 161.156 129.878 142.152 142.782 128.096C156.222 113.456 175.083 102.535 194.882 104.16Z" fill="#F4F4F5"/>
<path d="M35.4 257L32.55 252.124L27.15 250.905L27.675 245.267L24 241L27.675 236.733L27.15 231.095L32.55 229.876L35.4 225L40.5 227.21L45.6 225L48.45 229.876L53.85 231.095L53.325 236.733L57 241L53.325 245.267L53.85 250.905L48.45 252.124L45.6 257L40.5 254.79L35.4 257ZM38.925 246.41L47.4 237.8L45.3 235.59L38.925 242.067L35.7 238.867L33.6 241L38.925 246.41Z" fill="white"/>
<g clip-path="url(#clip0_1_13)">
<path d="M200.997 147.65C201.686 147.842 202.329 148.168 202.891 148.61C203.453 149.051 203.922 149.599 204.272 150.222C204.622 150.844 204.846 151.53 204.931 152.239C205.016 152.949 204.961 153.668 204.767 154.356L188.705 211.584C188.316 212.973 187.391 214.15 186.133 214.856C184.876 215.563 183.389 215.741 182.001 215.352C180.612 214.963 179.435 214.038 178.728 212.78C178.021 211.523 177.843 210.036 178.232 208.648L194.295 151.412C194.488 150.725 194.814 150.082 195.256 149.52C195.697 148.959 196.245 148.49 196.868 148.14C197.49 147.79 198.176 147.566 198.885 147.482C199.595 147.397 200.313 147.453 201.001 147.646M175.405 162.277C176.423 163.296 176.995 164.678 176.995 166.119C176.995 167.56 176.423 168.942 175.405 169.962L163.877 181.5L175.412 193.035C176.432 194.055 177.004 195.438 177.004 196.88C177.004 198.323 176.43 199.706 175.41 200.725C174.39 201.745 173.007 202.317 171.565 202.317C170.123 202.317 168.74 201.743 167.72 200.723L152.339 185.342C151.321 184.323 150.749 182.941 150.749 181.5C150.749 180.059 151.321 178.677 152.339 177.657L167.716 162.277C168.221 161.771 168.821 161.37 169.481 161.097C170.141 160.823 170.848 160.683 171.562 160.683C172.277 160.683 172.984 160.823 173.644 161.097C174.304 161.37 174.9 161.771 175.405 162.277ZM207.599 169.962C207.064 169.464 206.636 168.863 206.339 168.196C206.042 167.529 205.882 166.809 205.869 166.079C205.856 165.349 205.99 164.624 206.264 163.947C206.537 163.27 206.944 162.655 207.461 162.139C207.977 161.622 208.592 161.215 209.269 160.942C209.946 160.668 210.671 160.534 211.401 160.547C212.132 160.56 212.852 160.719 213.519 161.017C214.186 161.314 214.786 161.742 215.284 162.277L230.664 177.654C231.684 178.673 232.257 180.056 232.257 181.498C232.257 182.94 231.684 184.323 230.664 185.342L215.287 200.723C214.268 201.743 212.885 202.317 211.442 202.317C210 202.317 208.617 201.745 207.597 200.725C206.577 199.706 206.003 198.323 206.003 196.88C206.003 195.438 206.575 194.055 207.595 193.035L219.126 181.5L207.599 169.962Z" fill="#EA580C"/>
</g>
</g>
<defs>
<filter id="filter0_b_1_13" x="-100" y="-100" width="600" height="600" filterUnits="userSpaceOnUse" color-interpolation-filters="sRGB">
<feFlood flood-opacity="0" result="BackgroundImageFix"/>
<feGaussianBlur in="BackgroundImageFix" stdDeviation="50"/>
<feComposite in2="SourceAlpha" operator="in" result="effect1_backgroundBlur_1_13"/>
<feBlend mode="normal" in="SourceGraphic" in2="effect1_backgroundBlur_1_13" result="shape"/>
</filter>
<linearGradient id="paint0_linear_1_13" x1="400" y1="0" x2="0" y2="400" gradientUnits="userSpaceOnUse">
<stop stop-color="#FDBA74"/>
<stop offset="1" stop-color="#EA580C"/>
</linearGradient>
<clipPath id="clip0_1_13">
<rect width="87" height="87" fill="white" transform="translate(148 138)"/>
</clipPath>
</defs>
<script xmlns=""/></svg>