<svg xmlns="http://www.w3.org/2000/svg" viewBox="0 0 105 95" fill="none" class="absolute -left-10 -bottom-2 w-10 md:w-16 md:-left-16"><path stroke="#D4D5DD" stroke-linecap="round" stroke-linejoin="round" stroke-miterlimit="1.5" stroke-width="3.015" d="M2.427 23.897C2.22 19.63 2.081 13.84 2.681 9.44m0 0c.068-.507 3.777.052 3.942.092 3.608.887 6.84 2.244 10.083 3.705M2.68 9.44c6.778 20.914 27.81 29.559 46.134 22.626 1.816-.687 3.793-1.437 5.738-2.337m0 0c3.098-1.433 6.117-3.248 8.284-5.8 2-2.355 3.754-5.965 2.946-8.347-1.511-4.45-8.856-2.972-12.081 1.748-2.835 4.148-2.49 10.342.85 12.399Zm0 0c.07.043.142.085.215.125C72.425 39.425 96.306 20.33 102.84 2.12"></path><path fill="#D4D5DD" d="M34.783 70.478h.421c.426 0 .638 1.735.638 5.207 0 .721.023 1.709.069 2.962h-.069l.069.137v1.413c0 2.909-.775 5.093-2.325 6.551-1.77 1.55-3.51 2.325-5.218 2.325h-1.265c-1.64 0-3.145-.612-4.512-1.835-.38-.425-.684-1.01-.912-1.754v-1.06c0-1.42.988-2.925 2.963-4.512 2.12-1.405 3.95-2.108 5.492-2.108h.421c.092.015.137.06.137.137-1.268.326-2.864 1.124-4.785 2.392-1.831 1.512-2.746 2.78-2.746 3.806v.57c.09.562.35 1.056.774 1.481.996.798 2.146 1.196 3.453 1.196 0 .046.118.069.353.069 2.09 0 3.897-.87 5.424-2.61.752-1.048 1.128-2.08 1.128-3.099-.046-5.302-.069-8.682-.069-10.14 0-.494.187-.87.559-1.128Zm4.238 8.636h.479c.448 0 .843.494 1.185 1.481v.832c0 .684-.813 1.614-2.438 2.792-1.907 1.291-3.548 2.043-4.923 2.256h-.296c-1.071-.205-1.607-.562-1.607-1.071a.442.442 0 0 1 .183-.057l.592.182h.297c1.412-.167 3.152-.919 5.218-2.256.98-.775 1.515-1.272 1.607-1.492v-.058h-.057c-.1 0-.259.02-.479.058-.592 0-.95-.377-1.071-1.129v-.056c.22-.988.657-1.482 1.31-1.482Zm-.239 1.071-.057.297a.46.46 0 0 1 .057.228h.718c.076 0 .114-.038.114-.114 0-.107-.137-.244-.41-.41h-.422Zm5.082-2.86c.334 0 .501.54.501 1.618 0 2.743-.562 4.418-1.686 5.025-.205.312-.934.786-2.188 1.424h-.33v-.125c2.02-1.284 3.03-2.75 3.03-4.398v-2.985c0-.373.225-.559.673-.559Zm12.704-2.381c.828 0 1.785.338 2.872 1.014v.388c0 .25-1.166.406-3.498.467-1.094.288-1.953.885-2.575 1.788-.775 1.535-1.163 2.728-1.163 3.578-.16.562-.68 3.472-1.56 8.728-.517 2.31-.878 3.502-1.083 3.578h-.16c-.311-.16-.467-.498-.467-1.014 1.352-7.733 2.184-12.169 2.496-13.309.653-1.853 1.587-3.099 2.803-3.737a6.846 6.846 0 0 1 2.176-.706c0-.198.053-.456.16-.775Zm3.76 5.47a8.67 8.67 0 0 1 1.106-2.109c.531-.729.934-1.094 1.208-1.094.197 0 .296.1.296.297 0 .098-.186.467-.559 1.105-.227.38-.421.767-.58 1.162a7.82 7.82 0 0 0-.365 1.22c-.03.174-.057.334-.08.478a2.843 2.843 0 0 0-.034.444c-.008.236.03.445.114.627.09.175.212.315.364.422.16.106.342.19.547.25.213.053.437.08.672.08v1.595c-1.184.091-2.04-.27-2.563-1.082-.297-.426-.445-.965-.445-1.618 0-.259.023-.536.069-.832.053-.304.136-.62.25-.946Zm38.467-35.026h.217c.144 0 .216.106.216.319-.85 1.344-2.434 2.894-4.751 4.648-8.994 7.407-16.161 13.24-21.501 17.502-3.82 3.099-6.628 4.649-8.42 4.649-1.01-.091-1.516-.452-1.516-1.083.456-1.633 2.868-3.828 7.236-6.586 1.534-1.01 2.506-1.515 2.916-1.515l.114.216c-.114.183-2.457 2.055-7.03 5.618-1.002.866-1.504 1.44-1.504 1.72h.103c1.93 0 7.619-4.102 17.068-12.305 6.86-5.69 12.01-9.834 15.45-12.431.266-.19.734-.441 1.402-.752Zm-33.51 30.958c.501.136.752.383.752.74 0 .555.034 1.553.102 2.997 0 3.205-1.033 4.808-3.099 4.808-.099 0-.205-.106-.319-.319v-1.071c0-.152.32-.292.957-.422.57-.486.855-1.378.855-2.677v-3.1c0-.463.25-.782.752-.957Z"></path></svg>