<svg xmlns="http://www.w3.org/2000/svg" viewBox="0 0 105 95" fill="none" class="absolute -left-10 -bottom-2 w-10 md:w-16 md:-left-16"><path stroke="#D4D5DD" stroke-linecap="round" stroke-linejoin="round" stroke-miterlimit="1.5" stroke-width="3.015" d="M2 23.472c-.207-4.269-.346-10.058.253-14.457m0 0c.07-.507 3.778.051 3.943.092 3.608.886 6.84 2.244 10.082 3.705M2.253 9.015C9.032 29.928 30.065 38.574 48.388 31.64c1.816-.688 3.793-1.437 5.738-2.337m0 0c3.098-1.433 6.117-3.248 8.283-5.8 2-2.356 3.755-5.965 2.947-8.347-1.511-4.45-8.856-2.972-12.081 1.748-2.835 4.148-2.49 10.342.85 12.399Zm0 0c.07.043.142.085.215.125 17.657 9.57 41.538-9.525 48.071-27.733"></path><path fill="#D4D5DD" d="M14.66 79.397h.206v.205c-3.419 2.377-5.489 4.702-6.21 6.973-.137.456-.205.828-.205 1.117v.911c0 .843.65 1.842 1.948 2.997 1.178.76 2.317 1.177 3.418 1.253h1.197c1.67 0 3.9-1.113 6.688-3.338 0-.144.027-.217.08-.217 0-.402-.862-.634-2.587-.695-2.104 0-3.384-.512-3.84-1.538a.831.831 0 0 1-.136-.422v-.136c0-.714 1.117-1.622 3.35-2.724h.137v1.265c0 .069-.487.391-1.459.969-.235.175-.353.36-.353.558 0 .403.908.684 2.723.843 1.861 0 3 .372 3.418 1.117 0 .091.046.137.137.137v1.116c-.091 0-.232.232-.422.695-2.043 1.892-4.04 3.103-5.993 3.635-.889.182-1.82.32-2.792.41-.926 0-2.115-.3-3.566-.9a11.33 11.33 0 0 1-1.743-1.333c-1.048-1.208-1.607-2.298-1.675-3.27-.046 0-.068-.095-.068-.285v-1.048c0-.881.63-2.184 1.891-3.908 1.55-1.649 2.689-2.648 3.418-2.997 1.276-.927 2.09-1.39 2.439-1.39Zm3.738 9.468c.342-.212.737-.38 1.185-.501a5.648 5.648 0 0 1 1.481-.182c.243 0 .452.011.627.034.175.023.338.057.49.102.341.122.512.251.512.388 0 .182-.258.292-.774.33a7.206 7.206 0 0 0-1.63.228 11.07 11.07 0 0 0-1.56.536c-.061.015-.11.03-.149.045a.405.405 0 0 1-.148.023c-.342 0-.513-.137-.513-.41 0-.175.16-.372.479-.593Zm2.495-9.15h.547c.137 0 .25.293.342.878v.137c0 1.565-.726 2.602-2.176 3.11-.175.076-.6.145-1.277.206-.273-.069-.41-.228-.41-.479v-.672c0-.069.091-.16.274-.274h.273c1.071 0 1.747-.493 2.028-1.48 0-.897.133-1.372.4-1.425Zm2.7-.193a8.673 8.673 0 0 1 1.106-2.108c.532-.73.934-1.094 1.208-1.094.197 0 .296.1.296.297 0 .098-.186.467-.558 1.105a8.35 8.35 0 0 0-.582 1.162 7.83 7.83 0 0 0-.364 1.22c-.03.174-.057.333-.08.478a2.843 2.843 0 0 0-.034.444c-.008.236.03.445.114.627.091.174.212.315.364.421.16.107.342.19.547.251.213.053.437.08.673.08V84c-1.185.091-2.04-.27-2.564-1.082-.296-.426-.444-.965-.444-1.618 0-.259.022-.536.068-.832.053-.304.137-.62.25-.946Zm10.358-2.632c1.45 0 2.548.767 3.293 2.302.752 1.982 1.576 2.974 2.472 2.974h.035l.239-.046.068.718c-.083.045-.209.068-.376.068h-.205c-1.086 0-2.002-.84-2.746-2.518-.122-.486-.562-1.018-1.322-1.595-.676-.456-1.356-.684-2.04-.684-.698 0-1.416.25-2.153.752-.167.053-.25.099-.25.137.57.16 1.564.33 2.985.513 1.101.212 1.652.619 1.652 1.219v.034h.08v.205c-.053 0-.08.012-.08.034 0 .897-.84 1.565-2.518 2.006-.32.076-.893.14-1.72.193h-.342l-.206.046c-.03-.03-.098-.046-.205-.046-.045 0-.068.016-.068.046l-.228-.046h-.319c-.182 0-.384-.019-.604-.057-.448.342-1.094.612-1.937.81-.311.022-.467.068-.467.136h-1.196c0-.068-.034-.102-.103-.102v-.923c.069 0 .103-.03.103-.091 1.086-.076 1.629-.168 1.629-.274-.387-.106-.782-.334-1.185-.684-.311-.311-.482-.603-.513-.877-.023 0-.034-.011-.034-.034v-.422c.023-.319.24-.71.65-1.173.774-.691 1.587-1.102 2.438-1.23.038 0 .152-.012.342-.035.06 0 .277.046.65.137.417-.22.937-.468 1.56-.74.41-.221.661-.37.752-.445v-.034h.057v.068c.76-.228 1.364-.342 1.812-.342Zm-7.099 3.874c0 .501.722.874 2.165 1.117.654-.487.98-.995.98-1.527 0-.41-.247-.737-.74-.98l-.24-.068c-.364 0-.816.133-1.356.398-.539.365-.809.718-.809 1.06Zm4.273-.684-.023.069v.205c0 .516-.186 1.06-.558 1.63v.068h.273c1.2 0 2.31-.225 3.328-.673.28-.22.421-.39.421-.512 0-.183-.421-.327-1.265-.433-1.055-.122-1.78-.24-2.176-.354Zm10.87-6.141c.099-.099.194-.175.285-.228a.506.506 0 0 1 .285-.091c.197 0 .35.102.456.308a.967.967 0 0 1 .125.58c-.122.692-.414 1.038-.877 1.038-.44 0-.661-.236-.661-.707a.98.98 0 0 1 .102-.444c.069-.137.164-.289.285-.456Zm.08 5.435h.592c.145 0 .266.315.365.946v.148c0 1.686-.782 2.807-2.347 3.361-.19.076-.65.148-1.379.217-.296-.076-.444-.247-.444-.513v-.73c0-.075.099-.174.296-.296h.296c1.155 0 1.884-.531 2.188-1.595 0-.972.144-1.485.433-1.538Zm13.172-5.321c.828 0 1.785.338 2.87 1.014v.387c0 .251-1.165.407-3.497.468-1.094.288-1.952.885-2.575 1.788-.775 1.535-1.162 2.727-1.162 3.578-.16.562-.68 3.472-1.561 8.728-.517 2.31-.878 3.502-1.083 3.578h-.16c-.31-.16-.467-.498-.467-1.014 1.353-7.733 2.184-12.17 2.496-13.309.653-1.853 1.587-3.099 2.803-3.737a6.846 6.846 0 0 1 2.176-.706c0-.198.053-.456.16-.775Zm3.76 5.47a8.67 8.67 0 0 1 1.105-2.109c.532-.73.934-1.094 1.208-1.094.197 0 .296.1.296.297 0 .098-.186.467-.558 1.105-.228.38-.422.767-.581 1.162a7.83 7.83 0 0 0-.365 1.22c-.03.174-.057.333-.08.478a2.855 2.855 0 0 0-.034.444c-.008.236.03.445.114.627.091.174.213.315.364.421.16.107.342.19.547.251.213.053.437.08.673.08V84c-1.185.091-2.04-.27-2.564-1.082-.296-.426-.444-.965-.444-1.618 0-.259.022-.536.068-.832.053-.304.137-.62.25-.946Zm38.466-35.027h.217c.144 0 .216.107.216.32-.85 1.344-2.434 2.894-4.751 4.648-8.994 7.407-16.16 13.24-21.5 17.502-3.822 3.099-6.628 4.649-8.421 4.649-1.01-.092-1.516-.452-1.516-1.083.456-1.633 2.868-3.828 7.236-6.586 1.534-1.01 2.507-1.515 2.917-1.515l.114.216c-.114.183-2.458 2.055-7.03 5.618-1.003.866-1.505 1.44-1.505 1.72h.103c1.93 0 7.619-4.102 17.068-12.306 6.86-5.689 12.01-9.833 15.45-12.43.267-.19.734-.441 1.402-.753Zm-33.51 30.958c.502.137.752.384.752.741 0 .555.034 1.553.103 2.997 0 3.205-1.033 4.808-3.1 4.808-.098 0-.205-.106-.319-.319V82.61c0-.152.32-.293.958-.422.57-.486.854-1.378.854-2.677v-3.1c0-.463.25-.782.752-.957Z"></path></svg>