<svg xmlns="http://www.w3.org/2000/svg" viewBox="0 0 24 24" fill="none" class="h-8 w-8 z-10 text-white shadow-warranty-icon-mini md:shadow-warranty-icon"><path stroke="#fff" stroke-width="1.5" d="M3 19.111c0-2.413 1.697-4.468 4.004-4.848l.208-.035a17.134 17.134 0 0 1 5.576 0l.208.035c2.307.38 4.004 2.435 4.004 4.848C17 20.154 16.181 21 15.172 21H4.828C3.818 21 3 20.154 3 19.111ZM14.083 6.938c0 2.174-1.828 3.937-4.083 3.937S5.917 9.112 5.917 6.937C5.917 4.764 7.745 3 10 3s4.083 1.763 4.083 3.938Z"></path><g clip-path="url(#coach_svg__a)"><path stroke="#fff" stroke-linecap="round" stroke-linejoin="round" d="M18.218 8.529a.843.843 0 0 1 1.564 0l.204.49c.12.29.383.49.688.524l.57.065c.718.081 1.015.984.49 1.492l-.483.467a.879.879 0 0 0-.249.801l.117.59c.148.748-.653 1.312-1.285.906l-.382-.245a.834.834 0 0 0-.904 0l-.382.245c-.632.406-1.433-.158-1.285-.905l.117-.59a.879.879 0 0 0-.249-.802l-.483-.467c-.524-.508-.228-1.41.49-1.492l.57-.065a.852.852 0 0 0 .688-.523l.204-.491Z"></path></g><defs><clipPath id="coach_svg__a"><path fill="#fff" d="M15 7h8v8h-8z"></path></clipPath></defs></svg>