<svg xmlns="http://www.w3.org/2000/svg" viewBox="0 0 113 129" fill="none" class="absolute -left-9 -top-6 md:-top-10 w-9 z-10 md:w-16 md:-left-20"><path stroke="#D4D5DD" stroke-linecap="round" stroke-linejoin="round" stroke-miterlimit="1.5" stroke-width="3.015" d="M3.24 112.729c-.543 4.258-1.144 10.022-.924 14.345m0 0c.026.498 3.633-.36 3.794-.413 3.537-1.175 6.751-2.788 9.983-4.504m-13.777 4.917c8.198-21.334 41.87-51.673 58.909-46.278 1.688.535 3.526 1.119 5.321 1.855m0 0c2.86 1.171 5.613 2.728 7.488 5.088 1.73 2.177 3.125 5.62 2.156 8.053-1.81 4.544-8.745 3.675-11.462-.752-2.387-3.89-1.557-10.073 1.819-12.39Zm0 0a5.41 5.41 0 0 1 .217-.142c17.73-10.95 39.125 6.077 43.929 23.638"></path><path fill="#D4D5DD" d="M41.618 30.488c.828 0 1.785.338 2.872 1.014v.387c0 .25-1.166.407-3.498.467-1.094.289-1.953.885-2.575 1.79-.775 1.534-1.163 2.726-1.163 3.577-.16.562-.68 3.471-1.56 8.728-.517 2.31-.878 3.502-1.083 3.578h-.16c-.311-.16-.467-.498-.467-1.014 1.352-7.733 2.184-12.17 2.495-13.309.654-1.853 1.588-3.099 2.803-3.737a6.845 6.845 0 0 1 2.177-.707c0-.197.053-.455.16-.774Zm5.014 4.17h.478c.448 0 .843.494 1.185 1.481v.832c0 .684-.813 1.614-2.438 2.792-1.907 1.29-3.547 2.043-4.922 2.256h-.297c-1.07-.206-1.606-.563-1.606-1.071a.44.44 0 0 1 .182-.057l.593.182h.296c1.413-.167 3.152-.92 5.218-2.256.98-.775 1.516-1.273 1.607-1.493v-.057h-.057c-.099 0-.258.02-.479.057-.592 0-.95-.376-1.07-1.128v-.057c.22-.987.656-1.481 1.31-1.481Zm-.24 1.071-.057.296a.46.46 0 0 1 .057.228h.718c.076 0 .114-.038.114-.114 0-.106-.136-.243-.41-.41h-.422Zm5.652-1.299h.148c.25 0 .536.372.855 1.117.098.28.148.467.148.558v.627c-.069.554-.365 1.112-.889 1.675-.448.425-1.238.854-2.37 1.287-.744.312-1.933.608-3.566.889-.243.053-.464.08-.661.08h-.183c-.053 0-.08-.027-.08-.08v-.068c.077 0 .905-.285 2.485-.855 1.625-.608 2.727-1.177 3.304-1.71.54-.455.809-1.059.809-1.81 0-.282-.11-.605-.33-.97v-.512c.083-.152.193-.228.33-.228Zm13.776-3.942c.827 0 1.785.338 2.87 1.014v.387c0 .25-1.165.407-3.497.467-1.094.289-1.952.885-2.575 1.79-.775 1.534-1.163 2.726-1.163 3.577-.159.562-.68 3.471-1.56 8.728-.517 2.31-.878 3.502-1.083 3.578h-.16c-.31-.16-.467-.498-.467-1.014 1.352-7.733 2.184-12.17 2.496-13.309.653-1.853 1.587-3.099 2.803-3.737a6.846 6.846 0 0 1 2.176-.707c0-.197.053-.455.16-.774Zm3.76 5.469a8.67 8.67 0 0 1 1.105-2.108c.531-.73.934-1.094 1.208-1.094.197 0 .296.099.296.296 0 .1-.186.468-.558 1.106a8.35 8.35 0 0 0-.582 1.162 7.82 7.82 0 0 0-.364 1.219c-.03.175-.057.334-.08.479a2.843 2.843 0 0 0-.034.444c-.008.235.03.444.114.627.09.174.212.315.364.421.16.106.342.19.547.25.213.054.437.08.673.08v1.596c-1.185.091-2.04-.27-2.564-1.083-.296-.425-.445-.964-.445-1.618 0-.258.023-.535.069-.831.053-.304.137-.62.25-.946ZM108.046.93h.217c.144 0 .216.107.216.32-.851 1.344-2.434 2.893-4.751 4.648-8.994 7.406-16.16 13.24-21.5 17.502-3.822 3.099-6.628 4.648-8.421 4.648-1.01-.09-1.516-.452-1.516-1.082.456-1.633 2.868-3.828 7.236-6.586 1.534-1.01 2.506-1.515 2.917-1.515l.114.216c-.114.183-2.458 2.055-7.03 5.617-1.003.866-1.505 1.44-1.505 1.721h.103c1.93 0 7.619-4.102 17.068-12.306 6.86-5.69 12.01-9.833 15.451-12.43.266-.19.733-.441 1.401-.753Zm-33.51 30.96c.501.137.752.384.752.74 0 .555.034 1.554.103 2.998 0 3.205-1.034 4.808-3.1 4.808-.098 0-.205-.107-.319-.32v-1.07c0-.152.32-.293.957-.422.57-.486.855-1.379.855-2.677v-3.1c0-.463.25-.782.752-.957Z"></path></svg>