<svg xmlns="http://www.w3.org/2000/svg" viewBox="0 0 113 129" fill="none" class="absolute -left-9 -top-6 md:-top-10 w-9 z-10 md:w-16 md:-left-20"><g clip-path="url(#step4_svg__a)"><path stroke="#D4D5DD" stroke-linecap="round" stroke-linejoin="round" stroke-miterlimit="1.5" stroke-width="3.015" d="M5.97 107.677c-.542 4.258-1.143 10.022-.923 14.345m0 0c.026.498 3.633-.36 3.794-.413 3.537-1.175 6.75-2.788 9.983-4.504m-13.777 4.917c8.198-21.334 41.87-51.673 58.909-46.278 1.688.535 3.526 1.119 5.32 1.855m0 0c2.86 1.171 5.614 2.728 7.489 5.088 1.73 2.177 3.125 5.62 2.156 8.053-1.81 4.544-8.745 3.675-11.462-.752-2.387-3.89-1.557-10.073 1.819-12.39l-.001.001Zm0 0c.072-.05.144-.096.218-.142 17.73-10.95 39.125 6.077 43.929 23.638"></path><path fill="#D4D5DD" d="M21.992 31.053c.828 0 1.785.338 2.871 1.014v.387c0 .251-1.166.407-3.498.468-1.094.288-1.952.885-2.575 1.788-.775 1.535-1.162 2.727-1.162 3.578-.16.562-.68 3.472-1.561 8.728-.517 2.31-.878 3.502-1.083 3.578h-.16c-.31-.16-.466-.498-.466-1.014 1.352-7.733 2.183-12.17 2.495-13.309.653-1.853 1.587-3.099 2.803-3.737a6.846 6.846 0 0 1 2.176-.706c0-.198.053-.456.16-.775Zm8.317 4.91h.388a.57.57 0 0 0 .114.308c-.053.41-.145.692-.274.844-1.587 1.519-2.886 2.54-3.896 3.065-.859.547-1.88 1.033-3.066 1.458h-.922c0-.045-.065-.11-.194-.194v-.114c1.755-.828 3.555-1.914 5.4-3.258a79.397 79.397 0 0 0 2.45-2.108Zm2.029.56a8.666 8.666 0 0 1 1.105-2.109c.532-.73.934-1.094 1.208-1.094.197 0 .296.1.296.297 0 .098-.186.467-.559 1.105-.227.38-.421.767-.58 1.162a7.82 7.82 0 0 0-.365 1.22c-.03.174-.057.333-.08.478a2.843 2.843 0 0 0-.034.444c-.008.236.03.444.114.627.09.175.213.315.364.421.16.107.342.19.547.251.213.053.437.08.673.08V41c-1.185.091-2.04-.27-2.564-1.082-.296-.426-.444-.965-.444-1.618 0-.259.022-.536.068-.832.053-.304.137-.62.25-.946Zm10.357-2.633c1.45 0 2.548.767 3.293 2.302.752 1.982 1.576 2.974 2.472 2.974h.035l.239-.046.068.718c-.083.045-.209.068-.376.068h-.205c-1.086 0-2.002-.84-2.746-2.518-.122-.486-.562-1.018-1.322-1.595-.676-.456-1.356-.684-2.04-.684-.698 0-1.416.25-2.153.752-.167.053-.25.099-.25.137.57.16 1.564.33 2.985.513 1.101.212 1.652.619 1.652 1.219v.034h.08v.205c-.053 0-.08.011-.08.034 0 .897-.84 1.565-2.518 2.006-.32.076-.893.14-1.72.193h-.342l-.206.046c-.03-.03-.098-.046-.205-.046-.045 0-.068.016-.068.046l-.228-.046h-.319c-.182 0-.383-.019-.604-.057-.448.342-1.094.612-1.937.81-.311.022-.467.068-.467.136h-1.196c0-.068-.035-.102-.103-.102v-.923c.068 0 .103-.03.103-.092 1.086-.075 1.629-.167 1.629-.273-.387-.106-.782-.334-1.185-.684-.311-.311-.482-.604-.513-.877-.023 0-.034-.011-.034-.034v-.422c.023-.319.24-.71.65-1.173.774-.692 1.587-1.102 2.438-1.23.038 0 .152-.012.342-.035.06 0 .277.045.65.137.417-.22.937-.468 1.56-.74.41-.221.661-.37.752-.445v-.035h.057v.069c.76-.228 1.364-.342 1.812-.342Zm-7.099 3.874c0 .501.722.874 2.165 1.117.653-.486.98-.995.98-1.527 0-.41-.247-.737-.74-.98l-.24-.068c-.364 0-.816.133-1.356.398-.54.365-.809.718-.809 1.06Zm4.273-.684-.023.069v.205c0 .516-.186 1.06-.558 1.63v.068h.274c1.2 0 2.309-.224 3.327-.673.28-.22.421-.39.421-.512 0-.183-.421-.327-1.265-.433-1.056-.122-1.78-.24-2.176-.354Zm12.374-3.965c.069.061.24.107.513.137.433.243.73.589.889 1.037l.136.319v1.128c-.06.06-.106.262-.136.604-.251.95-.813 1.903-1.687 2.86-1.299 1.185-2.67 1.777-4.113 1.777-.046 0-.17-.08-.376-.24v-.797c.046 0 .125-.06.24-.182h.136c1.14 0 2.355-.608 3.646-1.823.782-.896 1.174-1.755 1.174-2.575 0-.638-.156-1.03-.467-1.174h-.194c-.744.16-1.603.832-2.575 2.017-.372.562-.559.969-.559 1.22v.364c.259.44.696.66 1.31.66 0 .031.031.046.092.046v.137c-.418.03-.73.046-.934.046h-.228c-.646 0-1.083-.247-1.31-.741v-.467c.083-.805.69-1.774 1.823-2.906 1.078-.934 1.902-1.401 2.472-1.401 0-.03.05-.046.148-.046Zm-1.891 9.754h.228c.364 0 .577.27.638.809v.353c0 .98-.79 2.157-2.37 3.532h-.183c0-.099.445-.85 1.334-2.256.311-.593.467-1.018.467-1.276-.03-.236-.069-.353-.114-.353-.965.653-1.447 1.234-1.447 1.743v.057c0 .106.076.376.228.809 0 .053-.057.11-.171.17-.502-.333-.752-.622-.752-.865v-.353c0-.692.577-1.444 1.731-2.256l.41-.114Zm15.895-11.816c.828 0 1.785.338 2.87 1.014v.387c0 .251-1.165.407-3.497.468-1.094.288-1.952.885-2.575 1.788-.775 1.535-1.162 2.727-1.162 3.578-.16.562-.68 3.472-1.561 8.728-.517 2.31-.878 3.502-1.083 3.578h-.16c-.31-.16-.467-.498-.467-1.014 1.353-7.733 2.184-12.17 2.496-13.309.653-1.853 1.587-3.099 2.803-3.737a6.846 6.846 0 0 1 2.176-.706c0-.198.053-.456.16-.775Zm3.76 5.47a8.67 8.67 0 0 1 1.105-2.109c.532-.73.934-1.094 1.208-1.094.197 0 .296.1.296.297 0 .098-.186.467-.558 1.105a8.35 8.35 0 0 0-.582 1.162 7.83 7.83 0 0 0-.364 1.22c-.03.174-.057.333-.08.478a2.855 2.855 0 0 0-.034.444c-.008.236.03.444.114.627.091.175.213.315.365.421.159.107.341.19.546.251.213.053.437.08.673.08V41c-1.185.091-2.04-.27-2.564-1.082-.296-.426-.444-.965-.444-1.618 0-.259.022-.536.068-.832.053-.304.137-.62.25-.946Zm38.466-35.027h.217c.144 0 .216.107.216.32-.85 1.344-2.434 2.894-4.751 4.648-8.994 7.406-16.16 13.24-21.5 17.502-3.822 3.099-6.628 4.648-8.421 4.648-1.01-.09-1.515-.451-1.515-1.082.455-1.633 2.867-3.828 7.235-6.586 1.534-1.01 2.507-1.515 2.917-1.515l.114.216c-.114.183-2.458 2.055-7.03 5.618-1.003.866-1.505 1.44-1.505 1.72h.103c1.93 0 7.619-4.102 17.068-12.305 6.86-5.69 12.01-9.834 15.451-12.432.266-.19.733-.44 1.401-.752Zm-33.51 30.958c.502.137.752.384.752.741 0 .554.034 1.553.103 2.997 0 3.205-1.033 4.808-3.1 4.808-.098 0-.205-.106-.319-.319V39.61c0-.152.32-.292.958-.422.57-.486.854-1.378.854-2.677v-3.1c0-.463.25-.782.752-.957Z"></path></g><defs><clipPath id="step4_svg__a"><path fill="#fff" d="M0 0h113v129H0z"></path></clipPath></defs></svg>