<svg xmlns="http://www.w3.org/2000/svg" viewBox="0 0 105 95" fill="none" class="absolute z-10 -left-10 -bottom-2 w-10 md:w-16 md:-left-16"><path stroke="#D4D5DD" stroke-linecap="round" stroke-linejoin="round" stroke-miterlimit="1.5" stroke-width="3.015" d="M2 23.472c-.207-4.269-.346-10.058.253-14.457m0 0c.07-.507 3.778.051 3.943.092 3.608.886 6.84 2.244 10.082 3.705M2.253 9.015C9.032 29.928 30.065 38.574 48.388 31.64c1.816-.688 3.793-1.437 5.738-2.337m0 0c3.098-1.433 6.117-3.248 8.283-5.8 2-2.356 3.755-5.965 2.947-8.347-1.511-4.45-8.856-2.972-12.081 1.748-2.835 4.148-2.49 10.342.85 12.399Zm0 0c.07.043.142.085.215.125 17.657 9.57 41.538-9.525 48.071-27.733"></path><path fill="#D4D5DD" d="M27.42 74.053c.827 0 1.784.338 2.87 1.014v.387c0 .251-1.165.407-3.497.468-1.094.288-1.953.885-2.575 1.788-.775 1.535-1.163 2.727-1.163 3.578-.16.562-.68 3.472-1.56 8.728-.517 2.31-.878 3.502-1.083 3.578h-.16c-.311-.16-.467-.498-.467-1.014 1.352-7.733 2.184-12.17 2.496-13.309.653-1.853 1.587-3.099 2.803-3.737a6.846 6.846 0 0 1 2.176-.706c0-.198.053-.456.16-.775Zm5.457 5.845h.627c1.04.395 1.56 1.269 1.56 2.62v.07h.309v1.492h-.935c-1.291 1.367-2.393 2.282-3.304 2.746-1.451.896-2.845 1.519-4.182 1.868 0 .046-.023.069-.068.069h-1.367l-1.186-.502-.375-.433v-.376h.056c.517.168.832.251.946.251h.433c1.3 0 3.46-.999 6.484-2.997.69-.622 1.067-.934 1.127-.934v-.125c-.19-.015-.5-.224-.934-.627-.372-.478-.558-.873-.558-1.185v-.25c0-.471.33-.97.991-1.493.25 0 .376-.065.376-.194Zm-.228 1.686c0 .441.44.783 1.322 1.026v-.433c0-.486-.319-.783-.957-.889-.22.099-.342.198-.365.296Zm6.928 1.151c-1.595.828-3.183 1.25-4.763 1.265v-1.686h.205c2.545.03 4.79-.969 6.734-2.997.608-.722 1.06-1.082 1.356-1.082.228 0 .346.106.353.319.015.205-.038.478-.16.82-.5 1.04-1.742 2.161-3.725 3.361Zm16.67-8.682c.828 0 1.785.338 2.87 1.014v.387c0 .251-1.165.407-3.497.468-1.094.288-1.952.885-2.575 1.788-.775 1.535-1.162 2.727-1.162 3.578-.16.562-.68 3.472-1.561 8.728-.517 2.31-.878 3.502-1.083 3.578h-.16c-.31-.16-.467-.498-.467-1.014 1.353-7.733 2.184-12.17 2.496-13.309.653-1.853 1.587-3.099 2.803-3.737a6.846 6.846 0 0 1 2.176-.706c0-.198.053-.456.16-.775Zm3.76 5.47a8.67 8.67 0 0 1 1.105-2.109c.532-.73.934-1.094 1.208-1.094.197 0 .296.1.296.297 0 .098-.186.467-.558 1.105-.228.38-.422.767-.581 1.162a7.83 7.83 0 0 0-.365 1.22c-.03.174-.057.333-.08.478a2.855 2.855 0 0 0-.034.444c-.008.236.03.445.114.627.091.174.213.315.364.421.16.107.342.19.547.251.213.053.437.08.673.08V84c-1.185.091-2.04-.27-2.564-1.082-.296-.426-.444-.965-.444-1.618 0-.259.022-.536.068-.832.053-.304.137-.62.25-.946Zm38.466-35.027h.217c.144 0 .216.107.216.32-.85 1.344-2.434 2.894-4.751 4.648-8.994 7.407-16.16 13.24-21.5 17.502-3.822 3.099-6.628 4.649-8.421 4.649-1.01-.092-1.515-.452-1.515-1.083.455-1.633 2.867-3.828 7.235-6.586 1.534-1.01 2.507-1.515 2.917-1.515l.114.216c-.114.183-2.458 2.055-7.03 5.618-1.003.866-1.505 1.44-1.505 1.72h.103c1.93 0 7.619-4.102 17.068-12.306 6.86-5.689 12.01-9.833 15.45-12.43.267-.19.734-.441 1.402-.753Zm-33.51 30.958c.502.137.752.384.752.741 0 .555.034 1.553.103 2.997 0 3.205-1.033 4.808-3.1 4.808-.098 0-.205-.106-.319-.319V82.61c0-.152.32-.293.958-.422.57-.486.854-1.378.854-2.677v-3.1c0-.463.25-.782.752-.957Z"></path></svg>